<svg id="Layer_1" data-name="Layer 1" xmlns="http://www.w3.org/2000/svg" viewBox="0 0 72 72"><defs><style>.cls-1{fill:#fff;}</style></defs><path class="cls-1" d="M72,5.19V66.81A5.18,5.18,0,0,1,66.86,72H5.13A5.17,5.17,0,0,1,0,66.81V5.19A5.17,5.17,0,0,1,5.13,0H66.86A5.18,5.18,0,0,1,72,5.19ZM22.61,16.47a6.19,6.19,0,1,0-6.18,6.19A6.19,6.19,0,0,0,22.61,16.47Zm-.83,45.24V27.35H11.09V61.71H21.78Zm40-18.83c0-9.26-2-16.38-12.81-16.38a11.22,11.22,0,0,0-10.1,5.55H38.7v-4.7H28.46V61.71H39.13v-17c0-4.48.85-8.82,6.42-8.82S51.09,41,51.09,45V61.71H61.76Z"/></svg>