<svg id="Layer_1" data-name="Layer 1" xmlns="http://www.w3.org/2000/svg" viewBox="0 0 72 72"><defs><style>.cls-1{fill:#fff;}</style></defs><path class="cls-1" d="M72,64.29A7.72,7.72,0,0,1,64.29,72H7.71A7.72,7.72,0,0,1,0,64.29V7.71A7.72,7.72,0,0,1,7.71,0H64.29A7.72,7.72,0,0,1,72,7.71ZM64,21.87a7.32,7.32,0,0,0-5.18-5.2C54.31,15.43,36,15.43,36,15.43s-18.31,0-22.85,1.24A7.32,7.32,0,0,0,8,21.87C6.75,26.45,6.75,36.05,6.75,36.05s0,9.58,1.22,14.17a7.23,7.23,0,0,0,5.18,5.13C17.69,56.57,36,56.57,36,56.57s18.31,0,22.85-1.24A7.22,7.22,0,0,0,64,50.21c1.22-4.58,1.22-14.16,1.22-14.16S65.25,26.47,64,21.87ZM45.32,36,30,44.73V27.34Z"/></svg>