<svg id="Layer_1" data-name="Layer 1" xmlns="http://www.w3.org/2000/svg" viewBox="0 0 72 72"><defs><style>.cls-1{fill:#fff;}</style></defs><path class="cls-1" d="M57.83,19.49a9.44,9.44,0,0,0-5.32-5.32C48.84,12.72,40.08,13.05,36,13.05s-12.81-.34-16.5,1.12a9.47,9.47,0,0,0-5.32,5.32C12.73,23.17,13.05,31.93,13.05,36s-.33,12.82,1.13,16.51a9.44,9.44,0,0,0,5.32,5.32C23.18,59.28,31.93,59,36,59s12.83.34,16.51-1.12a9.44,9.44,0,0,0,5.32-5.32C59.3,48.83,59,40.07,59,36S59.3,23.18,57.83,19.49ZM36,50.36A14.36,14.36,0,1,1,50.36,36,14.33,14.33,0,0,1,36,50.36ZM51,24.41a3.35,3.35,0,1,1,3.35-3.35A3.34,3.34,0,0,1,51,24.41ZM36,26.67A9.33,9.33,0,1,0,45.34,36,9.34,9.34,0,0,0,36,26.67ZM66.86,0H5.13A5.17,5.17,0,0,0,0,5.19V66.81A5.17,5.17,0,0,0,5.13,72H66.86A5.18,5.18,0,0,0,72,66.81V5.19A5.18,5.18,0,0,0,66.86,0ZM63.8,47.54C63.58,52,62.56,56,59.29,59.28S52,63.59,47.55,63.8s-18.48.26-23.1,0S16,62.55,12.72,59.28,8.41,52,8.19,47.54s-.26-18.47,0-23.1S9.43,16,12.72,12.71,20,8.41,24.45,8.2s18.48-.26,23.1,0S56,9.45,59.29,12.72,63.6,20,63.8,24.46,64.07,42.92,63.8,47.54Z"/></svg>