<svg id="Layer_1" data-name="Layer 1" xmlns="http://www.w3.org/2000/svg" viewBox="0 0 130 24"><defs><style>.cls-1{fill:#00f4b7;}.cls-2{fill:gold;}.cls-3{fill:#fffdb7;}.cls-4{fill:#9500ff;}.cls-5{fill:#95f4ff;}.cls-6{fill:#ffd7ff;}.cls-7{fill:#fff;}</style></defs><path class="cls-1" d="M6.37,3.83a7.89,7.89,0,0,1,5.15.82,17.27,17.27,0,0,1,6.05-3.27A12,12,0,0,0,.46,8.73,8.63,8.63,0,0,1,6.37,3.83Z"/><path class="cls-2" d="M5.37,15.77l-.45-.18A18.45,18.45,0,0,1,0,12.36,12,12,0,0,0,9.1,23.63a7.81,7.81,0,0,1-1.63-1.36A8.73,8.73,0,0,1,5.37,15.77Z"/><path class="cls-3" d="M5.37,15.77A15.89,15.89,0,0,1,10.81,5.25c.23-.21.47-.4.71-.6a7.89,7.89,0,0,0-5.15-.82A8.63,8.63,0,0,0,.46,8.73,12.13,12.13,0,0,0,0,12c0,.12,0,.24,0,.36a18.45,18.45,0,0,0,4.9,3.23Z"/><path class="cls-4" d="M21.3,12.42a7.32,7.32,0,0,1-2.62,3,17.61,17.61,0,0,1,0,6.52,12,12,0,0,0-.3-20.14C21.51,5.06,22.8,9.11,21.3,12.42Z"/><path class="cls-5" d="M11.52,4.65c3.35,1.72,6.15,5.62,7.12,10.54a2.51,2.51,0,0,0,0,.27,7.32,7.32,0,0,0,2.62-3c1.5-3.31.21-7.36-2.94-10.58-.26-.16-.52-.32-.79-.46A17.27,17.27,0,0,0,11.52,4.65Z"/><path class="cls-6" d="M18.68,15.46c-3.22,2.17-8.36,2.4-13.31.31a8.73,8.73,0,0,0,2.1,6.5A7.81,7.81,0,0,0,9.1,23.63,12.06,12.06,0,0,0,12,24a11.92,11.92,0,0,0,6.66-2A17.61,17.61,0,0,0,18.68,15.46Z"/><path class="cls-7" d="M5.37,15.77c5,2.09,10.09,1.86,13.31-.31a2.51,2.51,0,0,1,0-.27c-1-4.92-3.77-8.82-7.12-10.54-.24.2-.48.39-.71.6A15.89,15.89,0,0,0,5.37,15.77Z"/><path class="cls-4" d="M36.63,18.08c-3,0-5.27-1.24-5.44-3.63a.28.28,0,0,1,.28-.27H34a.29.29,0,0,1,.31.27c.11,1.16.89,1.67,2.34,1.67,1.25,0,1.92-.49,1.92-1.33,0-2.07-7.1-.06-7.1-4.62,0-2.25,1.81-3.46,4.74-3.46s4.73,1.12,5,3.34a.25.25,0,0,1-.26.27H38.51a.35.35,0,0,1-.34-.27,1.78,1.78,0,0,0-2-1.42c-1,0-1.69.38-1.69,1.31,0,2.07,7.11,0,7.11,4.58C41.57,16.79,39.42,18.08,36.63,18.08Z"/><path class="cls-4" d="M46.23,13.93l.13,3.62a.29.29,0,0,1-.28.28H43.3a.28.28,0,0,1-.27-.28l.12-3.62-.08-6.69A.28.28,0,0,1,43.34,7h2.55a.25.25,0,0,1,.26.27l0,1.1a3.56,3.56,0,0,1,3.12-1.63,3,3,0,0,1,3.08,2,3.49,3.49,0,0,1,3.33-2c2.19,0,3.46,1.33,3.46,4.22v3l.08,3.62a.28.28,0,0,1-.27.28H56.16a.28.28,0,0,1-.27-.28L56,13.93V11C56,9.67,55.45,9,54.58,9s-1.94,1.16-1.94,3.38v1.52l.13,3.62a.28.28,0,0,1-.27.28H49.75a.28.28,0,0,1-.27-.28l.13-3.62V11c0-1.3-.55-1.94-1.44-1.94s-1.94,1.16-1.94,3.38Z"/><path class="cls-4" d="M68.69,17.83a.28.28,0,0,1-.27-.28l0-1A4,4,0,0,1,65.26,18c-3.08,0-4.71-2.45-4.71-5.61s1.82-5.67,4.77-5.67a3.88,3.88,0,0,1,3.14,1.37l0-.89A.25.25,0,0,1,68.67,7h2.68a.28.28,0,0,1,.28.27l-.13,5.17.13,5.14a.29.29,0,0,1-.28.28Zm-2.55-1.9c1.54,0,2.36-1.16,2.39-3.46s-.81-3.58-2.32-3.61-2.43,1.16-2.43,3.4C63.78,14.71,64.62,16,66.14,15.93Z"/><path class="cls-4" d="M73.63,17.83a.28.28,0,0,1-.27-.28l.1-5.16-.1-5.15A.27.27,0,0,1,73.63,7h2.64a.25.25,0,0,1,.25.27L76.46,8.8a4.49,4.49,0,0,1,3.88-1.92,2.85,2.85,0,0,1,.4,0,.34.34,0,0,1,.27.32V9a.25.25,0,0,1-.27.26,1.72,1.72,0,0,0-.32,0c-2.23,0-3.9,1.24-3.88,3.73l0,4.55a.28.28,0,0,1-.27.28Z"/><path class="cls-4" d="M88.94,17.34a.36.36,0,0,1-.25.36,6.44,6.44,0,0,1-1.9.34c-1.83,0-3.58-.93-3.58-3.4l0-5.44H82.09a.27.27,0,0,1-.27-.27V7.24A.27.27,0,0,1,82.09,7h1.12l0-2.45a.28.28,0,0,1,.28-.27h2.7a.27.27,0,0,1,.27.27l0,2.45h2.32a.27.27,0,0,1,.27.27V8.93a.27.27,0,0,1-.27.27H86.35l0,5.36c0,.93.46,1.22,1.16,1.22a4.85,4.85,0,0,0,1.14-.15.21.21,0,0,1,.27.19Z"/><path class="cls-4" d="M96.58,18a3.93,3.93,0,0,1-3.08-1.31l.06,4.41a.28.28,0,0,1-.27.27H90.55a.28.28,0,0,1-.28-.27l.13-7.72-.13-6.18A.28.28,0,0,1,90.55,7h2.68a.25.25,0,0,1,.25.27l0,1a4,4,0,0,1,3.2-1.47c3.08,0,4.7,2.44,4.7,5.6S99.53,18,96.58,18Zm-.89-2.13c1.61,0,2.43-1.16,2.43-3.38,0-2.4-.82-3.62-2.36-3.62s-2.37,1.16-2.39,3.41S94.17,15.91,95.69,15.91Z"/><path class="cls-4" d="M103.18,17.83a.28.28,0,0,1-.27-.28l.12-5.14-.12-5.17a.27.27,0,0,1,.27-.27h2.74a.28.28,0,0,1,.28.27l-.13,5.17.13,5.14a.29.29,0,0,1-.28.28Zm0-11.92a.28.28,0,0,1-.27-.27V3.34a.28.28,0,0,1,.27-.27h2.66a.27.27,0,0,1,.27.27v2.3a.27.27,0,0,1-.27.27Z"/><path class="cls-4" d="M113.3,18.1c-3.47,0-5.54-2.21-5.54-5.67s2.07-5.74,5.61-5.74c2.76,0,4.55,1.54,4.85,3.86a.26.26,0,0,1-.26.28H115.6a.32.32,0,0,1-.33-.28,2,2,0,0,0-1.9-1.73c-1.61,0-2.36,1.18-2.36,3.59s.78,3.56,2.36,3.58c1,0,1.83-.69,2-2.06a.31.31,0,0,1,.32-.28h2.42a.24.24,0,0,1,.25.28A4.76,4.76,0,0,1,113.3,18.1Z"/><path class="cls-4" d="M125.26,15.55l-1.35-2.4-1,1.28.06,3.12a.28.28,0,0,1-.27.28H120a.28.28,0,0,1-.27-.28l.15-7.1-.15-7.11a.28.28,0,0,1,.27-.27h2.66a.27.27,0,0,1,.27.27l-.12,7,0,.66,3.1-3.86a.56.56,0,0,1,.44-.21h2.93a.12.12,0,0,1,.09.21l-3.29,3.69L130,17.59a.17.17,0,0,1-.15.24h-3.12a.47.47,0,0,1-.4-.26Z"/></svg>