<svg id="Layer_1" data-name="Layer 1" xmlns="http://www.w3.org/2000/svg" viewBox="0 0 72 72"><defs><style>.cls-1{fill:#00f4b7;}.cls-2{fill:gold;}.cls-3{fill:#fffdb7;}.cls-4{fill:#9500ff;}.cls-5{fill:#95f4ff;}.cls-6{fill:#ffd7ff;}.cls-7{fill:#fff;}</style></defs><path class="cls-1" d="M19.1,11.49A23.65,23.65,0,0,1,34.55,14,51.8,51.8,0,0,1,52.71,4.13,35.94,35.94,0,0,0,1.39,26.19C5.27,18.49,11.42,13,19.1,11.49Z"/><path class="cls-2" d="M16.11,47.31c-.45-.19-.9-.35-1.35-.55A55.34,55.34,0,0,1,.05,37.07,36,36,0,0,0,27.29,70.9a24,24,0,0,1-4.88-4.09C17.69,61.62,15.69,54.71,16.11,47.31Z"/><path class="cls-3" d="M16.11,47.31c.59-10.68,6.24-22.4,16.32-31.57.69-.63,1.41-1.2,2.12-1.79A23.65,23.65,0,0,0,19.1,11.49c-7.68,1.51-13.83,7-17.71,14.7A35.66,35.66,0,0,0,0,36c0,.36,0,.71.05,1.07a55.34,55.34,0,0,0,14.71,9.69C15.21,47,15.66,47.12,16.11,47.31Z"/><path class="cls-4" d="M63.91,37.25A21.82,21.82,0,0,1,56,46.37,52.3,52.3,0,0,1,56,66a36,36,0,0,0-.89-60.44C64.52,15.18,68.39,27.32,63.91,37.25Z"/><path class="cls-5" d="M34.55,14C44.61,19.11,53,30.81,55.91,45.58c.05.27.08.53.13.79a21.82,21.82,0,0,0,7.87-9.12c4.48-9.93.61-22.07-8.83-31.74-.77-.48-1.56-1-2.37-1.38A51.8,51.8,0,0,0,34.55,14Z"/><path class="cls-6" d="M56,46.37c-9.66,6.51-25.07,7.21-39.93.94-.42,7.4,1.58,14.31,6.3,19.5a24,24,0,0,0,4.88,4.09A36.27,36.27,0,0,0,36,72a35.82,35.82,0,0,0,20-6A52.3,52.3,0,0,0,56,46.37Z"/><path class="cls-7" d="M16.11,47.31C31,53.58,46.38,52.88,56,46.37c0-.26-.08-.52-.13-.79C53,30.81,44.61,19.11,34.55,14c-.71.59-1.43,1.16-2.12,1.79C22.35,24.91,16.7,36.63,16.11,47.31Z"/></svg>